<svg xmlns="http://www.w3.org/2000/svg" width="321.534" height="107.921" viewBox="0 0 321.534 107.921">
  <g id="Group_3466" data-name="Group 3466" transform="translate(-281.344 -113.559)">
    <path id="Subtraction_1" data-name="Subtraction 1" d="M7301.783,3383.921a38.383,38.383,0,0,1-10.244-1.317,30.981,30.981,0,0,1-8.758-3.952,33.9,33.9,0,0,1-7.088-6.217,36.384,36.384,0,0,1-5.234-8.109,43.566,43.566,0,0,1-3.227-9.537,50.128,50.128,0,0,1-1.077-10.5,46.179,46.179,0,0,1,1.188-10.6,40.076,40.076,0,0,1,3.563-9.519,35.826,35.826,0,0,1,5.79-8.053,36.9,36.9,0,0,1,7.867-6.2,36.255,36.255,0,0,1,9.8-3.952,48.54,48.54,0,0,1,11.579-1.317,45.883,45.883,0,0,1,11.17,1.3,34.648,34.648,0,0,1,9.463,3.9,35.4,35.4,0,0,1,13.286,14.1,39.993,39.993,0,0,1,3.507,9.427,45.821,45.821,0,0,1,1.169,10.465v38.3h-13.8v-40.013c.15-4.73-1.632-9.026-3.2-12.239a23.444,23.444,0,0,0-21.894-13.509,24.778,24.778,0,0,0-13.732,3.71,24.389,24.389,0,0,0-8.759,10.022,34.925,34.925,0,0,0-.074,28.353,24.036,24.036,0,0,0,8.609,10.02,24.408,24.408,0,0,0,13.657,3.71,23.5,23.5,0,0,0,17.52-7.216v11.451a31,31,0,0,1-7.871,4.97A32.273,32.273,0,0,1,7301.783,3383.921Zm-80.163-1.782v-75.707h13.806v75.707H7221.62Zm-30.133,0h-17.815a26.187,26.187,0,0,1-9-1.448,18.337,18.337,0,0,1-6.81-4.342,18.73,18.73,0,0,1-4.286-6.827,26.1,26.1,0,0,1-1.428-8.906v-37.176h-13.36v-11.727h13.36v-20.051h13.656v20.051h25.682v11.727h-25.682v36.284a10.91,10.91,0,0,0,2.747,7.8,10.072,10.072,0,0,0,7.644,2.894h15.292v11.726Zm-92.335,0v-75.707h13.806v75.707h-13.806Zm-62.941,0v-58.7H7023v-11.727h13.21v-6.171a26.492,26.492,0,0,1,1.429-9,18.145,18.145,0,0,1,11.1-11.1,26.488,26.488,0,0,1,9-1.429h18.705v11.729h-16.032c-3.35,0-5.947.949-7.72,2.82s-2.672,4.52-2.672,7.867v5.281h23.455v11.727h-23.455v58.7h-13.806Zm192.386-87.731a9.383,9.383,0,1,1,6.458-2.746A8.875,8.875,0,0,1,7228.6,3294.408Zm-122.467,0a9.383,9.383,0,1,1,6.457-2.746A8.883,8.883,0,0,1,7106.13,3294.408Z" transform="translate(-6741.656 -3162.44)" fill="#2f2f2f"/>
  </g>
</svg>
